<?xml version="1.0" standalone="no"?>
<!DOCTYPE svg PUBLIC "-//W3C//DTD SVG 20010904//EN"
 "http://www.w3.org/TR/2001/REC-SVG-20010904/DTD/svg10.dtd">
<svg version="1.0" xmlns="http://www.w3.org/2000/svg"
 width="1024.000000pt" height="1024.000000pt" viewBox="0 0 1024.000000 1024.000000"
 preserveAspectRatio="xMidYMid meet">

<g transform="translate(0.000000,1024.000000) scale(0.100000,-0.100000)"
fill="#000000" stroke="none">
<path d="M4920 7699 c-654 -44 -1232 -316 -1687 -794 -372 -390 -612 -883
-690 -1420 -24 -169 -24 -555 0 -715 85 -554 300 -1011 664 -1415 361 -400
890 -696 1419 -794 192 -35 303 -43 542 -39 260 6 383 21 608 78 1070 271
1830 1173 1923 2283 63 752 -163 1441 -651 1984 -326 362 -784 637 -1264 757
-299 75 -550 97 -864 75z m64 -321 c3 -13 6 -251 6 -530 l0 -507 -47 4 c-27 3
-131 7 -233 10 -176 5 -375 22 -542 46 l-76 11 32 77 c78 181 179 356 281 486
137 176 334 335 489 396 86 34 82 34 90 7z m317 3 c235 -80 468 -288 644 -572
85 -137 205 -383 192 -395 -18 -19 -504 -61 -773 -67 l-111 -2 -6 284 c-7 302
-9 771 -4 771 2 0 28 -8 58 -19z m825 -144 c150 -65 347 -186 496 -306 88 -71
298 -286 298 -306 0 -18 -126 -69 -272 -109 -131 -36 -238 -60 -242 -54 -1 1
-15 35 -31 73 -105 257 -241 481 -427 702 -43 51 -78 94 -78 96 0 6 150 -51
256 -96z m-1796 56 c-211 -250 -328 -432 -442 -688 l-58 -130 -41 3 c-56 4
-288 81 -377 126 l-73 37 39 47 c65 77 242 243 325 306 171 127 365 234 555
306 101 38 110 37 72 -7z m-1054 -912 c106 -53 283 -117 400 -145 l72 -18 -30
-96 c-62 -208 -119 -510 -133 -709 -3 -48 -8 -103 -11 -120 l-5 -33 -394 0
-395 0 6 63 c34 391 146 735 330 1017 33 49 59 90 60 90 0 0 45 -22 100 -49z
m3849 -38 c104 -165 230 -476 275 -680 23 -104 50 -306 50 -369 l0 -44 -388 0
-388 0 -12 138 c-22 252 -71 515 -138 735 -15 48 -25 89 -22 92 3 3 49 15 104
26 113 24 345 97 419 133 28 14 53 25 57 25 3 1 23 -25 43 -56z m-2936 -203
c596 -78 1328 -76 1910 5 58 8 113 15 122 15 14 0 25 -22 49 -97 102 -328 140
-586 140 -954 0 -305 -31 -575 -95 -830 -25 -99 -82 -268 -93 -281 -4 -4 -93
4 -197 17 -329 41 -487 50 -920 49 -429 0 -583 -10 -918 -55 -86 -12 -160 -19
-163 -16 -18 18 -97 277 -123 404 -53 256 -64 380 -65 683 -1 370 32 621 120
930 41 142 49 161 67 155 6 -3 81 -14 166 -25z m-614 -1242 c17 -259 96 -705
156 -886 12 -35 19 -65 17 -67 -2 -2 -49 -14 -103 -25 -111 -24 -252 -68 -364
-112 -88 -34 -82 -38 -164 87 -182 276 -299 639 -332 1033 l-6 72 394 0 395 0
7 -102z m3875 48 c0 -71 -28 -271 -56 -394 -52 -235 -155 -483 -273 -659 -34
-51 -65 -94 -69 -97 -5 -3 -48 10 -98 29 -87 33 -326 97 -411 110 -24 4 -43 8
-43 10 0 1 22 97 50 212 64 270 97 465 112 669 l12 164 388 0 388 0 0 -44z
m-2458 -1618 c2 -266 3 -485 1 -487 -1 -2 -36 8 -77 23 -215 79 -430 265 -605
526 -97 146 -198 340 -181 350 31 19 525 64 761 68 l97 2 4 -482z m728 462
c132 -11 376 -38 398 -45 9 -3 -1 -32 -34 -97 -177 -355 -410 -617 -659 -741
-71 -35 -165 -71 -171 -64 -2 2 -5 221 -6 486 l-3 483 175 -6 c96 -4 231 -11
300 -16z m-1843 -152 c101 -230 260 -477 431 -673 34 -38 60 -71 58 -73 -6 -6
-190 70 -303 125 -236 116 -482 300 -630 472 -35 41 -60 78 -56 82 5 4 55 23
113 42 89 29 141 43 315 80 11 3 25 5 32 6 7 0 24 -27 40 -61z m2659 42 c167
-33 344 -89 344 -109 0 -18 -149 -174 -240 -252 -112 -96 -292 -217 -420 -284
-92 -47 -332 -146 -338 -140 -2 2 25 37 60 77 157 181 276 358 388 583 52 102
79 145 91 145 9 0 61 -9 115 -20z"/>
<path d="M4386 5526 c-92 -34 -156 -142 -142 -238 22 -150 192 -239 323 -170
200 105 140 402 -84 418 -36 3 -73 -1 -97 -10z"/>
<path d="M5702 5527 c-87 -32 -142 -113 -142 -210 0 -72 17 -113 66 -161 107
-104 285 -72 355 65 25 50 25 140 0 195 -44 98 -173 149 -279 111z"/>
<path d="M4612 4785 c-67 -56 -50 -127 54 -225 228 -213 615 -226 876 -30 88
67 128 121 128 174 -1 68 -45 106 -123 106 -34 0 -54 -7 -87 -32 -24 -18 -59
-45 -79 -60 -56 -43 -137 -70 -226 -75 -137 -9 -238 25 -344 115 -48 41 -60
46 -110 50 -50 4 -61 1 -89 -23z"/>
</g>
</svg>
